<svg width="150" height="50" viewBox="0 0 320 104.336491393734" xmlns="http://www.w3.org/2000/svg" class="css-1j8o68f">
    <defs id="SvgjsDefs2001">
        <linearGradient id="SvgjsLinearGradient2009">
            <stop id="SvgjsStop2010" stop-color="#00ff8f" offset="0"></stop>
            <stop id="SvgjsStop2011" stop-color="#00a1ff" offset="1"></stop>
        </linearGradient>
    </defs>
    <g id="SvgjsG2003" featurekey="UyNsn2-0"
        transform="matrix(5.4904014426346417,0,0,4.4904014426346417,0,0)"
        fill="url(#SvgjsLinearGradient2009)">
        <path
            d="M4.1 8.2 l-1.42 0 l1.3 -2.48 l4.4 0 l4.48 14.28 l-3.44 0 l-0.8 -2.86 l-0.78 0.06 l-2.78 0 l-0.68 -0.06 l-0.82 2.86 l-3.22 0 z M7.84 14.42 l-1.32 -4.76 l-1.4 4.76 l2.72 0 z M22.659999999999997 5.98 l0.000019531 13.74 c-0.48 0.10666 -0.94666 0.18666 -1.4 0.24 s-0.86668 0.09334 -1.24 0.12 s-0.69334 0.04 -0.96 0.04 l-0.54 0 c-0.90666 0 -1.67 -0.14 -2.29 -0.42 s-1.12 -0.66 -1.5 -1.14 s-0.65666 -1.0367 -0.83 -1.67 s-0.26 -1.31 -0.26 -2.03 c0 -0.92 0.11666 -1.71 0.35 -2.37 s0.56 -1.2033 0.98 -1.63 s0.92 -0.74332 1.5 -0.94998 s1.2233 -0.31 1.93 -0.31 c0.12 0 0.25666 0.01 0.41 0.03 s0.3 0.04334 0.44 0.07 s0.27 0.05666 0.39 0.09 s0.21334 0.07 0.28 0.11 l0 -1.18 l0.06 -0.26 l-1.8 0 l1.34 -2.48 l3.14 0 z M18.84 17.44 c0.2 0 0.39334 -0.0066602 0.58 -0.02 s0.35332 -0.03334 0.49998 -0.06 l0 -5.12 c-0.09334 -0.01334 -0.2 -0.03334 -0.32 -0.06 c-0.10666 -0.02666 -0.23 -0.04666 -0.37 -0.06 s-0.29666 -0.02 -0.47 -0.02 c-0.62666 0 -1.1533 0.21334 -1.58 0.64 s-0.64 1.1333 -0.64 2.12 c0 0.49334 0.06 0.90668 0.18 1.24 s0.28334 0.6 0.49 0.8 s0.45 0.34 0.73 0.42 s0.58 0.12 0.9 0.12 z M25.36 12.04 l-1.66 0 l1.32 -2.48 l2.9 0 l0.24 1.12 c0.30666 -0.34666 0.68332 -0.63 1.13 -0.85 s0.96332 -0.33 1.55 -0.33 c1.3733 0 2.3534 0.5 2.94 1.5 c0.33334 -0.46666 0.72668 -0.83332 1.18 -1.1 s1.02 -0.4 1.7 -0.4 c1.2 0 2.0766 0.31666 2.63 0.95 s0.83 1.6433 0.83 3.03 l0 6.52 l-3.04 0 l0 -5.98 c0 -0.64 -0.10334 -1.0933 -0.31 -1.36 s-0.56332 -0.4 -1.07 -0.4 c-0.21334 0 -0.41 0.02334 -0.59 0.07 s-0.33334 0.13332 -0.46 0.25998 s-0.22666 0.3 -0.3 0.52 s-0.11 0.51 -0.11 0.87 l0 6.02 l-3.04 0 l0 -6.02 c0 -0.66666 -0.11666 -1.12 -0.35 -1.36 s-0.55668 -0.36 -0.97002 -0.36 c-0.2 0 -0.38666 0.02 -0.56 0.06 s-0.33 0.12 -0.47 0.24 s-0.25 0.29334 -0.33 0.52 s-0.12 0.52666 -0.12 0.9 l0 6.02 l-3.04 0 l0 -7.96 z M45.92 9.56 l0 10.44 l-3.02 0 l0 -7.22 l0.1 -0.72 l-1.72 0 l1.36 -2.5 l3.28 0 z M45.84 8.7 l-3 0 l0 -2.72 l3 0 l0 2.72 z M48.480000000000004 12.04 l-1.68 0 l1.32 -2.48 l2.9 0 l0.26 1.12 c0.33334 -0.36 0.73 -0.66 1.19 -0.9 s0.99 -0.36 1.59 -0.36 c1.2133 0 2.1134 0.32334 2.7 0.97 s0.88 1.67 0.88 3.07 l0 6.54 l-3.04 0 l0 -6.02 c0 -0.61334 -0.15 -1.0533 -0.45 -1.32 s-0.68334 -0.4 -1.15 -0.4 c-0.38666 0 -0.73332 0.13 -1.04 0.39 s-0.46 0.69 -0.46 1.29 l0 6.06 l-3.02 0 l0 -7.96 z">
        </path>
    </g>
</svg>